<svg width="24" height="24" viewBox="0 0 24 24" fill="none" xmlns="http://www.w3.org/2000/svg">
<path d="M8 6C8 3.79086 9.79086 2 12 2C14.2091 2 16 3.79086 16 6M8 6V9M8 6V6C7.07069 6 6.60603 6 6.21964 6.07686C4.63288 6.39249 3.39249 7.63288 3.07686 9.21964C3 9.60603 3 10.0707 3 11V13C3 15.8089 3 17.2134 3.67412 18.2223C3.96596 18.659 4.34096 19.034 4.77772 19.3259C5.78661 20 7.19108 20 10 20H14C16.8089 20 18.2134 20 19.2223 19.3259C19.659 19.034 20.034 18.659 20.3259 18.2223C21 17.2134 21 15.8089 21 13V11C21 10.0707 21 9.60603 20.9231 9.21964C20.6075 7.63288 19.3671 6.39249 17.7804 6.07686C17.394 6 16.9293 6 16 6V6M8 6H16M16 6V9M10 11H14" stroke="white" stroke-width="1.5" stroke-linecap="round" stroke-linejoin="round"/>
</svg>
