<svg width="24" height="24" viewBox="0 0 24 24" fill="none" xmlns="http://www.w3.org/2000/svg">
<path d="M16.7897 16.369C20.9067 12.252 22.7608 7.43115 20.931 5.60137C19.4088 4.07918 15.8336 5.08961 12.2903 7.85661C11.5525 8.43276 10.4916 8.41436 9.82969 7.75245V7.75245C9.12065 7.04341 9.14499 5.8783 9.94017 5.26744C13.439 2.57958 16.9433 1.61365 18.4462 3.11655C20.276 4.94632 18.4218 9.76714 14.3048 13.8841C10.1878 18.0011 5.36701 19.8553 3.53724 18.0255C2.0351 16.5234 3.01572 13.0054 5.69287 9.51597C6.30332 8.7203 7.46858 8.69584 8.17771 9.40497V9.40497C8.83951 10.0668 8.85804 11.1274 8.28242 11.8654C5.52633 15.3989 4.5005 18.9888 6.02206 20.5103C7.85184 22.3401 12.6727 20.486 16.7897 16.369ZM16.7897 16.369L12.5662 15.4586L15.8793 12.1455L16.3345 14.2572M16.7897 16.369L16.3345 14.2572M16.3345 14.2572L15.1727 14.7377" stroke="white" stroke-width="1.5" stroke-linecap="round" stroke-linejoin="round"/>
</svg>
