<svg width="32" height="32" viewBox="0 0 32 32" fill="none" xmlns="http://www.w3.org/2000/svg">
<path d="M8.625 16.625V18.875M15.375 16.625V18.875M7.5 22.8125C7.5 22.8125 8.625 25.0625 12 25.0625C15.375 25.0625 16.5 22.8125 16.5 22.8125M21 20C21 24.9706 16.9706 29 12 29C7.02944 29 3 24.9706 3 20C3 15.0294 7.02944 11 12 11C16.9706 11 21 15.0294 21 20Z" stroke="white" stroke-width="1.5" stroke-linecap="round" stroke-linejoin="round"/>
<path d="M16 8.85714V6.71429C16 5.05743 17.3431 3.71429 19 3.71429H19.5L20.375 2H25.625L26.5 3.71429H27C28.6569 3.71429 30 5.05743 30 6.71429V11C30 12.6569 28.6569 14 27 14H22.5M25.625 8.57143C25.625 9.99159 24.4497 11.1429 23 11.1429C21.5503 11.1429 20.375 9.99159 20.375 8.57143C20.375 7.15127 21.5503 6 23 6C24.4497 6 25.625 7.15127 25.625 8.57143Z" stroke="white" stroke-width="1.5" stroke-linecap="round" stroke-linejoin="round"/>
</svg>
