<svg width="32" height="32" viewBox="0 0 32 32" fill="none" xmlns="http://www.w3.org/2000/svg">
<g clip-path="url(#clip0_11031_2074)">
<path d="M17 13H17.2972C18.0102 13 18.3667 13 18.6237 13.1781C18.7069 13.2358 18.7808 13.3057 18.843 13.3856C19.0351 13.6323 19.0549 13.9883 19.0945 14.7002L19.2778 18M17 13V13.5553C17 14.623 17 15.1569 17.1718 15.6425C17.2286 15.803 17.2989 15.9582 17.382 16.1067C17.6335 16.5563 18.0347 16.9085 18.8371 17.613L19.2778 18M17 13H12M19.2778 18L19.9045 29.2805C19.9444 29.9997 19.9644 30.3594 19.7983 30.6272C19.7445 30.7139 19.6779 30.7918 19.6005 30.8583C19.3616 31.0638 19.0032 31.0997 18.2863 31.1714L16.7715 31.3229C16.0327 31.3967 15.6633 31.4337 15.3841 31.2722C15.2939 31.2201 15.2124 31.1541 15.1425 31.0768C14.9264 30.8375 14.8854 30.4685 14.8034 29.7306L13.5552 18.4969C13.5238 18.214 13.2847 18 13 18V18C12.7153 18 12.4762 18.214 12.4448 18.4969L11.1966 29.7306C11.1146 30.4685 11.0736 30.8375 10.8575 31.0768C10.7876 31.1541 10.7061 31.2201 10.6159 31.2722C10.3367 31.4337 9.96732 31.3967 9.22851 31.3229L7.71365 31.1714C6.99683 31.0997 6.63841 31.0638 6.39946 30.8583C6.32215 30.7918 6.25546 30.7139 6.20171 30.6272C6.03559 30.3594 6.05557 29.9997 6.09553 29.2805L6.72222 18M9 13H8.70278C7.98979 13 7.63329 13 7.3763 13.1781C7.29312 13.2358 7.21917 13.3057 7.15699 13.3856C6.96487 13.6323 6.9451 13.9883 6.90555 14.7002L6.72222 18M9 13V13.5553C9 14.623 9 15.1569 8.82817 15.6425C8.77141 15.803 8.70111 15.9582 8.61802 16.1067C8.36649 16.5563 7.9653 16.9085 7.16293 17.613L6.72222 18M9 13H12M12.5 16.5V16.5C12.1799 16.1799 12 15.7456 12 15.2929V13" stroke="white" stroke-width="1.5" stroke-linecap="round" stroke-linejoin="round"/>
<path d="M16 9.85714V7.71429C16 6.05743 17.3431 4.71429 19 4.71429H19.5L20.375 3H25.625L26.5 4.71429H27C28.6569 4.71429 30 6.05743 30 7.71429V12C30 13.6569 28.6569 15 27 15H22.5M25.625 9.57143C25.625 10.9916 24.4497 12.1429 23 12.1429C21.5503 12.1429 20.375 10.9916 20.375 9.57143C20.375 8.15127 21.5503 7 23 7C24.4497 7 25.625 8.15127 25.625 9.57143Z" stroke="white" stroke-width="1.5" stroke-linecap="round" stroke-linejoin="round"/>
</g>
<defs>
<clipPath id="clip0_11031_2074">
<rect width="32" height="32" fill="white"/>
</clipPath>
</defs>
</svg>
