<svg width="32" height="32" viewBox="0 0 32 32" fill="none" xmlns="http://www.w3.org/2000/svg">
<path d="M5 20V23M17 20V23M17 23V25.8881C17 27.6611 17 28.5477 16.5219 29.2897C16.3807 29.5089 16.1579 29.7652 15.9606 29.9356C15.2925 30.5125 14.5206 30.6212 12.9769 30.8385C12.2906 30.9352 11.6048 31 11 31C10.3952 31 9.70943 30.9352 9.02313 30.8385C7.47941 30.6212 6.70755 30.5125 6.03938 29.9356C5.84207 29.7652 5.61932 29.5089 5.47813 29.2897C5 28.5477 5 27.6611 5 25.8881V23M17 23L19.3724 22.4069C20.0548 22.2363 20.396 22.151 20.6013 21.9195C20.6678 21.8445 20.7227 21.76 20.7641 21.6687C20.8918 21.3869 20.8307 21.0405 20.7084 20.3478L20.2085 17.5149C20.0236 16.4671 19.9311 15.9431 19.75 15.4801C19.3344 14.4177 18.568 13.5293 17.5779 12.9625C17.1464 12.7155 16.6417 12.5472 15.6323 12.2108V12.2108C15.4623 12.1541 15.3774 12.1258 15.2913 12.1027C15.0951 12.05 14.894 12.0173 14.6911 12.0053C14.6022 12 14.5127 12 14.3335 12H14M5 23L2.62761 22.4069C1.94522 22.2363 1.60402 22.151 1.39867 21.9195C1.33217 21.8445 1.27731 21.76 1.23594 21.6687C1.1082 21.3869 1.16932 21.0405 1.29156 20.3478L1.79149 17.5149C1.9764 16.4671 2.06886 15.9431 2.24998 15.4801C2.6656 14.4177 3.43205 13.5293 4.42211 12.9625C4.85357 12.7155 5.35829 12.5472 6.36773 12.2108V12.2108C6.53768 12.1541 6.62265 12.1258 6.70867 12.1027C6.90491 12.05 7.10601 12.0173 7.30885 12.0053C7.39776 12 7.48733 12 7.66647 12H8M8 12V12C8 13.6569 9.34315 15 11 15V15C12.6569 15 14 13.6569 14 12V12M8 12H14" stroke="white" stroke-width="1.5" stroke-linecap="round" stroke-linejoin="round"/>
<path d="M16 8.85714V6.71429C16 5.05743 17.3431 3.71429 19 3.71429H19.5L20.375 2H25.625L26.5 3.71429H27C28.6569 3.71429 30 5.05743 30 6.71429V11C30 12.6569 28.6569 14 27 14H22.5M25.625 8.57143C25.625 9.99159 24.4497 11.1429 23 11.1429C21.5503 11.1429 20.375 9.99159 20.375 8.57143C20.375 7.15127 21.5503 6 23 6C24.4497 6 25.625 7.15127 25.625 8.57143Z" stroke="white" stroke-width="1.5" stroke-linecap="round" stroke-linejoin="round"/>
</svg>
