<svg width="33" height="23" viewBox="0 0 33 23" fill="none" xmlns="http://www.w3.org/2000/svg">
<path d="M17 9.85714V6.71429C17 5.05743 18.3431 3.71429 20 3.71429H20.5L21.375 2H26.625L27.5 3.71429H28C29.6569 3.71429 31 5.05743 31 6.71429V11C31 12.6569 29.6569 14 28 14H24.5M26.625 8.57143C26.625 9.99159 25.4497 11.1429 24 11.1429C22.5503 11.1429 21.375 9.99159 21.375 8.57143C21.375 7.15127 22.5503 6 24 6C25.4497 6 26.625 7.15127 26.625 8.57143Z" stroke="white" stroke-width="1.5" stroke-linecap="round" stroke-linejoin="round"/>
<path d="M16 13.5L18.2985 13.7299C19.8321 13.8832 21 15.1737 21 16.715V17M16 13.5L11.4195 10.5554C10.1275 9.72483 8.40056 10.1989 7.71368 11.5726V11.5726C7.27629 12.4474 6.3822 13 5.40417 13H4.70501C4.24531 13 3.79589 12.8639 3.4134 12.6089V12.6089C2.38179 11.9212 1 12.6607 1 13.9005V17M16 13.5C15.6667 14 15 15.4 15 17M15 17H21M15 17H1M21 17V19C21 19.5523 20.5523 20 20 20H2C1.44772 20 1 19.5523 1 19V17" stroke="white" stroke-width="1.5" stroke-linecap="round" stroke-linejoin="round"/>
</svg>
