<svg width="24" height="24" viewBox="0 0 24 24" fill="none" xmlns="http://www.w3.org/2000/svg">
<path d="M7 12L8.1227 14.3919C8.19355 14.5429 8.33498 14.6485 8.49981 14.6737L10.0381 14.9088C10.4404 14.9702 10.6047 15.4609 10.3205 15.7522L9.17623 16.925C9.0654 17.0385 9.01508 17.198 9.04063 17.3546L9.30637 18.9838C9.37356 19.3957 8.93628 19.7038 8.571 19.5019L7.24189 18.7672C7.09137 18.6839 6.90863 18.6839 6.7581 18.7672L5.429 19.5019C5.06372 19.7038 4.62644 19.3957 4.69363 18.9838L4.95937 17.3546C4.98492 17.198 4.9346 17.0385 4.82377 16.925L3.67954 15.7522C3.39533 15.4609 3.5596 14.9702 3.9619 14.9088L5.50019 14.6737C5.66502 14.6485 5.80645 14.5429 5.8773 14.3919L7 12ZM7 12V7M17 10L18.1227 12.3919C18.1936 12.5429 18.335 12.6485 18.4998 12.6737L20.0381 12.9088C20.4404 12.9702 20.6047 13.4609 20.3205 13.7522L19.1762 14.925C19.0654 15.0385 19.0151 15.198 19.0406 15.3546L19.3064 16.9838C19.3736 17.3957 18.9363 17.7038 18.571 17.5019L17.2419 16.7672C17.0914 16.6839 16.9086 16.6839 16.7581 16.7672L15.429 17.5019C15.0637 17.7038 14.6264 17.3957 14.6936 16.9838L14.9594 15.3546C14.9849 15.198 14.9346 15.0385 14.8238 14.925L13.6795 13.7522C13.3953 13.4609 13.5596 12.9702 13.9619 12.9088L15.5002 12.6737C15.665 12.6485 15.8064 12.5429 15.8773 12.3919L17 10ZM17 10V5" stroke="white" stroke-width="1.5" stroke-linecap="round" stroke-linejoin="round"/>
</svg>
