<svg width="24" height="24" viewBox="0 0 24 24" fill="none" xmlns="http://www.w3.org/2000/svg">
<path d="M10 13H4.14056C3.13192 13 2.28112 13.7511 2.15601 14.7519L2 16M10 13V16M10 13H14M14 13H19.8594C20.8681 13 21.7189 13.7511 21.844 14.7519L22 16M14 13V16M10 16V16C10 17.6569 8.65685 19 7 19H5C3.34315 19 2 17.6569 2 16V16M10 16H12H14M14 16V16C14 17.6569 15.3431 19 17 19H19C20.6569 19 22 17.6569 22 16V16M22 16L20.9005 7.93681C20.7089 6.53222 19.1573 5.76723 17.9265 6.47055L17 7M2 16L3.09953 7.93681C3.29106 6.53222 4.84265 5.76723 6.07346 6.47055L7 7" stroke="white" stroke-width="1.5" stroke-linecap="round" stroke-linejoin="round"/>
</svg>
