<svg width="24" height="24" viewBox="0 0 24 24" fill="none" xmlns="http://www.w3.org/2000/svg">
<path d="M17.7489 13.5824C20.3201 14.221 22 15.2766 22 16.4706C22 18.4198 17.5228 20 12 20C6.47715 20 2 18.4198 2 16.4706C2 15.3024 3.60809 14.2667 6.08562 13.6244M17.4545 12.7126L15.9569 12.9629C13.3371 13.4008 10.6629 13.4008 8.04314 12.9629L6.54545 12.7126M17.4545 15.5882V10.2941C17.4545 7.37026 15.0125 5 12 5C8.98754 5 6.54545 7.37026 6.54545 10.2941V15.5882L8.04314 15.8386C10.6629 16.2765 13.3371 16.2765 15.9569 15.8386L17.4545 15.5882Z" stroke="white" stroke-width="1.5" stroke-linecap="round"/>
</svg>
