<svg width="24" height="24" viewBox="0 0 24 24" fill="none" xmlns="http://www.w3.org/2000/svg">
<path d="M10.875 15.8529V16.4118M13.125 15.8529V16.4118M21 10.9477C21 15.8858 18.1875 22 12 22C5.8125 22 3 15.8858 3 10.9477C3 6.00964 7.02944 3 12 3C16.9706 3 21 6.00964 21 10.9477ZM17.625 8.58824C17.625 12.0654 16.625 13.0588 13.125 13.0588C13.125 10.0784 14.625 8.58824 17.625 8.58824ZM6.375 8.58824C6.375 12.0654 7.375 13.0588 10.875 13.0588C10.875 10.0784 9.375 8.58824 6.375 8.58824Z" stroke="white" stroke-width="1.5" stroke-linecap="round" stroke-linejoin="round"/>
</svg>
