<svg width="24" height="24" viewBox="0 0 24 24" fill="none" xmlns="http://www.w3.org/2000/svg">
<path d="M10 10C11.5 9.5 12.5 9.5 14 10M10 10V10C9.37049 11.259 9.37049 12.741 10 14V14M10 10L4.71349 6.69593C4.56496 6.6031 4.49069 6.55668 4.48135 6.55112C3.66302 6.06409 2.73523 6.79204 3.01359 7.70274C3.01676 7.71314 3.04828 7.80876 3.11131 8V8M14 10V10C14.6295 11.259 14.6295 12.741 14 14V14M14 10L17.201 7.99937C18.8797 6.95021 19.719 6.42563 20.1899 6.61377C20.3471 6.67657 20.458 6.75487 20.5698 6.88198C20.9048 7.26277 20.6764 8.29734 20.2196 10.3665C20.0848 10.9768 20 11.5427 20 12C20 13.0276 20.4284 14.6035 20.8887 16M14 14C12.5 14.5 11.5 14.5 10 14M14 14L19.2865 17.3041C19.435 17.3969 19.5093 17.4433 19.5187 17.4489C20.337 17.9359 21.2648 17.208 20.9864 16.2973C20.9832 16.2869 20.9517 16.1912 20.8887 16V16M10 14L6.79899 16.0006C5.12034 17.0498 4.28101 17.5744 3.81007 17.3862C3.65287 17.3234 3.54197 17.2451 3.43017 17.118C3.09525 16.7372 3.32364 15.7027 3.78042 13.6335C3.91516 13.0232 4 12.4573 4 12C4 10.9724 3.57158 9.39649 3.11131 8M20.8887 16C19.7591 14.6667 17.6 11.6 18 10M3.11131 8C4.24087 9 6.4 11.6 6 14" stroke="white" stroke-width="1.5" stroke-linecap="round" stroke-linejoin="round"/>
</svg>
