<svg width="24" height="24" viewBox="0 0 24 24" fill="none" xmlns="http://www.w3.org/2000/svg">
<path d="M16 3H16.2972C17.0102 3 17.3667 3 17.6237 3.17813C17.7069 3.23579 17.7808 3.30575 17.843 3.38561C18.0351 3.63232 18.0549 3.98826 18.0945 4.70015L18.2778 8M16 3V3.55526C16 4.62304 16 5.15693 16.1718 5.64255C16.2286 5.80295 16.2989 5.95824 16.382 6.10673C16.6335 6.55626 17.0347 6.90852 17.8371 7.61304L18.2778 8M16 3H11M18.2778 8L18.9045 19.2805C18.9444 19.9997 18.9644 20.3594 18.7983 20.6272C18.7445 20.7139 18.6779 20.7918 18.6005 20.8583C18.3616 21.0638 18.0032 21.0997 17.2863 21.1714L15.7715 21.3229C15.0327 21.3967 14.6633 21.4337 14.3841 21.2722C14.2939 21.2201 14.2124 21.1541 14.1425 21.0768C13.9264 20.8375 13.8854 20.4685 13.8034 19.7306L12.5552 8.49694C12.5238 8.21403 12.2847 8 12 8V8C11.7153 8 11.4762 8.21403 11.4448 8.49694L10.1966 19.7306C10.1146 20.4685 10.0736 20.8375 9.85745 21.0768C9.78761 21.1541 9.70611 21.2201 9.61591 21.2722C9.33673 21.4337 8.96732 21.3967 8.22851 21.3229L6.71365 21.1714C5.99683 21.0997 5.63841 21.0638 5.39946 20.8583C5.32215 20.7918 5.25546 20.7139 5.20171 20.6272C5.03559 20.3594 5.05557 19.9997 5.09553 19.2805L5.72222 8M8 3H7.70278C6.98979 3 6.63329 3 6.3763 3.17813C6.29312 3.23579 6.21917 3.30575 6.15699 3.38561C5.96487 3.63232 5.9451 3.98826 5.90555 4.70015L5.72222 8M8 3V3.55526C8 4.62304 8 5.15693 7.82817 5.64255C7.77141 5.80295 7.70111 5.95824 7.61802 6.10672C7.36649 6.55626 6.9653 6.90852 6.16293 7.61304L5.72222 8M8 3H11M11.5 6.5V6.5C11.1799 6.17986 11 5.74565 11 5.29289V3" stroke="white" stroke-width="1.5" stroke-linecap="round" stroke-linejoin="round"/>
</svg>
