<svg width="24" height="24" viewBox="0 0 24 24" fill="none" xmlns="http://www.w3.org/2000/svg">
<g id="prop">
<path id="Vector" d="M5 5H9M19 5H15M9 5V5C9 3.34315 10.3431 2 12 2V2C13.6569 2 15 3.34315 15 5V5M9 5H15M13.5 17H8.62898C7.9443 17 7.60197 17 7.34991 16.8318C7.26819 16.7773 7.19494 16.711 7.13255 16.6351C6.9401 16.401 6.90604 16.0604 6.83791 15.3791L6.39582 10.9582C6.23249 9.3249 6.15082 8.50824 6.52457 7.92323C6.64477 7.7351 6.79561 7.56842 6.97085 7.43011C7.51577 7 8.3365 7 9.97795 7H14.022C15.6635 7 16.4842 7 17.0292 7.43011C17.2044 7.56842 17.3552 7.7351 17.4754 7.92323C17.8492 8.50824 17.7675 9.3249 17.6042 10.9582L17.1493 15.5074C17.0934 16.0658 17.0655 16.3449 16.9297 16.5508C16.8367 16.6917 16.7095 16.8068 16.56 16.8853C16.3416 17 16.0611 17 15.5 17V17M13.5 17V20.2C13.5 20.48 13.5 20.62 13.5545 20.727C13.6024 20.8211 13.6789 20.8976 13.773 20.9455C13.88 21 14.02 21 14.3 21H16.6577C17.1229 21 17.5 20.6229 17.5 20.1577V20.1577C17.5 19.7712 17.2369 19.4342 16.862 19.3405L15.6818 19.0455C15.653 19.0383 15.6386 19.0347 15.6262 19.0297C15.559 19.0031 15.5113 18.9421 15.5018 18.8703C15.5 18.8571 15.5 18.8423 15.5 18.8126V17M13.5 17H15.5M10.5 17V20.2C10.5 20.48 10.5 20.62 10.4455 20.727C10.3976 20.8211 10.3211 20.8976 10.227 20.9455C10.12 21 9.98003 21 9.7 21H7.34233C6.87712 21 6.5 20.6229 6.5 20.1577V20.1577C6.5 19.7712 6.76306 19.4342 7.13803 19.3405L8.31818 19.0455C8.34699 19.0383 8.3614 19.0347 8.37375 19.0297C8.44105 19.0031 8.48866 18.9421 8.49824 18.8703C8.5 18.8571 8.5 18.8423 8.5 18.8126V17" stroke="white" stroke-width="1.5" stroke-linecap="round" stroke-linejoin="round"/>
</g>
</svg>
