<svg width="24" height="24" viewBox="0 0 24 24" fill="none" xmlns="http://www.w3.org/2000/svg">
<path d="M6 11V14M18 11V14M18 14V16.8881C18 18.6611 18 19.5477 17.5219 20.2897C17.3807 20.5089 17.1579 20.7652 16.9606 20.9356C16.2925 21.5125 15.5206 21.6212 13.9769 21.8385C13.2906 21.9352 12.6048 22 12 22C11.3952 22 10.7094 21.9352 10.0231 21.8385C8.47941 21.6212 7.70755 21.5125 7.03938 20.9356C6.84207 20.7652 6.61932 20.5089 6.47813 20.2897C6 19.5477 6 18.6611 6 16.8881V14M18 14L20.3724 13.4069C21.0548 13.2363 21.396 13.151 21.6013 12.9195C21.6678 12.8445 21.7227 12.76 21.7641 12.6687C21.8918 12.3869 21.8307 12.0405 21.7084 11.3478L21.2085 8.51491C21.0236 7.46706 20.9311 6.94313 20.75 6.48013C20.3344 5.41769 19.568 4.52933 18.5779 3.9625C18.1464 3.71548 17.6417 3.54724 16.6323 3.21076V3.21076C16.4623 3.15411 16.3774 3.12578 16.2913 3.10268C16.0951 3.04997 15.894 3.01734 15.6911 3.00528C15.6022 3 15.5127 3 15.3335 3H15M6 14L3.62761 13.4069C2.94522 13.2363 2.60402 13.151 2.39867 12.9195C2.33217 12.8445 2.27731 12.76 2.23594 12.6687C2.1082 12.3869 2.16932 12.0405 2.29156 11.3478L2.79149 8.51491C2.9764 7.46706 3.06886 6.94313 3.24998 6.48013C3.6656 5.41769 4.43205 4.52933 5.42211 3.9625C5.85357 3.71548 6.35829 3.54724 7.36773 3.21076V3.21076C7.53768 3.15411 7.62265 3.12578 7.70867 3.10268C7.90491 3.04997 8.10601 3.01734 8.30885 3.00528C8.39776 3 8.48733 3 8.66647 3H9M9 3V3C9 4.65685 10.3431 6 12 6V6C13.6569 6 15 4.65685 15 3V3M9 3H15" stroke="white" stroke-width="1.5" stroke-linecap="round" stroke-linejoin="round"/>
</svg>
