<svg width="24" height="24" viewBox="0 0 24 24" fill="none" xmlns="http://www.w3.org/2000/svg">
<path d="M17 11.5L19.2985 11.7299C20.8321 11.8832 22 13.1737 22 14.715V15M17 11.5L12.4195 8.55538C11.1275 7.72483 9.40056 8.19889 8.71368 9.57264V9.57264C8.27629 10.4474 7.3822 11 6.40417 11H5.70501C5.24531 11 4.79589 10.8639 4.4134 10.6089V10.6089C3.38179 9.9212 2 10.6607 2 11.9005V15M17 11.5C16.6667 12 16 13.4 16 15M16 15H22M16 15H2M22 15V17C22 17.5523 21.5523 18 21 18H3C2.44772 18 2 17.5523 2 17V15" stroke="white" stroke-width="1.5" stroke-linecap="round" stroke-linejoin="round"/>
</svg>
