<svg width="24" height="24" viewBox="0 0 24 24" fill="none" xmlns="http://www.w3.org/2000/svg">
<path d="M9 3H8.49326C8.36952 3 8.30765 3 8.24603 3.00253C8.08331 3.00923 7.92141 3.02916 7.76193 3.06213C7.70154 3.07461 7.64151 3.08962 7.52146 3.11963V3.11963C7.17201 3.207 6.99728 3.25068 6.87151 3.32529C6.53246 3.52641 6.34321 3.90795 6.38824 4.29958C6.40494 4.44486 6.47589 4.6104 6.61778 4.94149L6.74042 5.22764C7.02121 5.88283 7.16161 6.21043 7.22196 6.55071C7.2753 6.85151 7.28238 7.15869 7.24297 7.46163C7.19838 7.80433 7.07323 8.13805 6.82294 8.8055L6.34382 10.0831C6.19147 10.4894 6.1153 10.6925 6.06924 10.9032C6.05391 10.9733 6.0411 11.0439 6.03084 11.115C6 11.3284 6 11.5453 6 11.9792V14V16.8881C6 18.6611 6 19.5477 6.47813 20.2897C6.61932 20.5089 6.84207 20.7652 7.03938 20.9356C7.70755 21.5125 8.47941 21.6212 10.0231 21.8385C10.7094 21.9352 11.3952 22 12 22C12.6048 22 13.2906 21.9352 13.9769 21.8385C15.5206 21.6212 16.2925 21.5125 16.9606 20.9356C17.1579 20.7652 17.3807 20.5089 17.5219 20.2897C18 19.5477 18 18.6611 18 16.8881V14V11.9792C18 11.5453 18 11.3284 17.9692 11.115C17.9589 11.0439 17.9461 10.9733 17.9308 10.9032C17.8847 10.6925 17.8085 10.4894 17.6562 10.0831L17.1771 8.8055C16.9268 8.13805 16.8016 7.80433 16.757 7.46163C16.7176 7.15869 16.7247 6.85151 16.778 6.55071C16.8384 6.21043 16.9788 5.88283 17.2596 5.22764L17.3822 4.94149C17.5241 4.6104 17.5951 4.44486 17.6118 4.29958C17.6568 3.90795 17.4675 3.52641 17.1285 3.32529C17.0027 3.25068 16.828 3.207 16.4785 3.11963V3.11963C16.3585 3.08962 16.2985 3.07461 16.2381 3.06213C16.0786 3.02916 15.9167 3.00923 15.754 3.00253C15.6924 3 15.6305 3 15.5067 3H15M9 3V3C9 4.65685 10.3431 6 12 6V6C13.6569 6 15 4.65685 15 3V3M9 3H15" stroke="white" stroke-width="1.5" stroke-linecap="round" stroke-linejoin="round"/>
</svg>
