<svg width="24" height="24" viewBox="0 0 24 24" fill="none" xmlns="http://www.w3.org/2000/svg">
<path d="M12 20L12.1213 20.1213C12.6839 20.6839 13.447 21 14.2426 21H17C18.6569 21 20 19.6569 20 18V18M12 20L11.8787 20.1213C11.3161 20.6839 10.553 21 9.75736 21H7C5.34315 21 4 19.6569 4 18V18M12 20V8M9 3V3C7.34315 3 6 4.34315 6 6V6.75736C6 7.55301 5.68393 8.31607 5.12132 8.87868L4.87868 9.12132C4.31607 9.68393 4 10.447 4 11.2426V12V14V16M9 3L12 8M9 3H15M12 8L15 3M15 3V3C16.6569 3 18 4.34315 18 6V6.75736C18 7.55301 18.3161 8.31607 18.8787 8.87868L19.1213 9.12132C19.6839 9.68393 20 10.447 20 11.2426V12V14V16M4 16H7C7.55228 16 8 16.4477 8 17V17C8 17.5523 7.55228 18 7 18H4M4 16V18M20 18H17C16.4477 18 16 17.5523 16 17V17C16 16.4477 16.4477 16 17 16H20M20 18V16" stroke="white" stroke-width="1.5" stroke-linecap="round" stroke-linejoin="round"/>
</svg>
