<svg width="34" height="34" viewBox="0 0 34 34" fill="none" xmlns="http://www.w3.org/2000/svg">
<g clip-path="url(#clip0_11028_2038)">
<path d="M17.4294 13.914V17.1566H15.601M23.1113 18.4244C23.9583 19.2713 24.9556 20.2686 25.7282 21.0413C26.2581 21.5712 26.523 21.8361 26.5739 22.157C26.5903 22.2607 26.5903 22.3663 26.5739 22.4699C26.523 22.7908 26.2579 23.056 25.7276 23.5863L24.0305 25.2833C23.5002 25.8136 23.2351 26.0788 22.9142 26.1296C22.8105 26.146 22.705 26.146 22.6013 26.1296C22.2804 26.0788 22.0152 25.8136 21.485 25.2833L18.8687 22.667M15.3331 10.6462L12.7168 8.02992C12.1865 7.49963 11.9214 7.23449 11.6005 7.18366C11.4968 7.16724 11.3912 7.16724 11.2876 7.18366C10.9667 7.23449 10.7015 7.49963 10.1712 8.02993L8.47419 9.72698C7.9439 10.2573 7.67875 10.5224 7.62792 10.8433C7.61151 10.947 7.61151 11.0526 7.62792 11.1562C7.67875 11.4771 7.9439 11.7423 8.47419 12.2726L11.0905 14.8889M21.9503 12.0499L21.5968 12.4035M21.3435 12.414V12.414C19.0004 10.0708 15.2014 10.0708 12.8583 12.414V12.414C10.5151 14.7571 10.5151 18.5561 12.8583 20.8993V20.8993C15.2014 23.2424 19.0004 23.2424 21.3435 20.8993V20.8993C23.6867 18.5561 23.6867 14.7571 21.3435 12.414Z" stroke="white" stroke-width="1.5" stroke-linecap="round" stroke-linejoin="round"/>
</g>
<defs>
<clipPath id="clip0_11028_2038">
<rect width="24" height="24" fill="white" transform="translate(0.0292969 17) rotate(-45)"/>
</clipPath>
</defs>
</svg>
